The Girl With The Dragon Tattoo 2011 CaM NEW SOURCE - INFERNO
 
http://www.imdb.com/title/tt1568346/ 

Thanx to a great friend 4 this  

K here we go with a New Source
Video is pretty good for a cam but had a flicker
which we removed as much as possible with out causing
other issue's to arise, some scene's still have it.
And throughout the movie you can see chairs
in the bottom corners of the screen which couldn't
be cropped away without losing too much of the
video.
Audio is nice for a cam so left that alone.
Check sample and Enjoy!

Format                           : AVI
Format/Info                      : Audio Video Interleave
File size                        : 1.77 GiB
Duration                         : 2h 32mn
Overall bit rate                 : 1 655 Kbps

Video
ID                               : 0
Format                           : MPEG-4 Visual
Format profile                   : Advanced Simple@L5
Format settings, BVOP            : 2
Format settings, QPel            : No
Format settings, GMC             : No warppoints
Format settings, Matrix          : Default (H.263)
Muxing mode                      : Packed bitstream
Codec ID                         : XVID
Codec ID/Hint                    : XviD
Duration                         : 2h 32mn
Bit rate                         : 1 515 Kbps
Width                            : 672 pixels
Height                           : 352 pixels
Display aspect ratio             : 1.909
Frame rate                       : 29.970 fps
Color space                      : YUV
Chroma subsampling               : 4:2:0
Bit depth                        : 8 bits
Scan type                        : Progressive
Compression mode                 : Lossy
Bits/(Pixel*Frame)               : 0.214
Stream size                      : 1.62 GiB (92%)
Writing library                  : XviD 64

Audio
ID                               : 1
Format                           : MPEG Audio
Format version                   : Version 1
Format profile                   : Layer 3
Mode                             : Joint stereo
Mode extension                   : MS Stereo
Codec ID                         : 55
Codec ID/Hint                    : MP3
Duration                         : 2h 32mn
Bit rate mode                    : Constant
Bit rate                         : 128 Kbps
Channel(s)                       : 2 channels
Sampling rate                    : 48.0 KHz
Compression mode                 : Lossy
Stream size                      : 140 MiB (8%)
Alignment                        : Split accross interleaves
Interleave, duration             : 33 ms (1.00 video frame)
Interleave, preload duration     : 1000 ms


Poster:

 
http://i.imgur.com/nPpmG.jpg


Screens:

 
http://i.imgur.com/u2Qoq.png

 
http://i.imgur.com/Zg2u8.png

 
http://i.imgur.com/968O9.png


ENJOY!